0.06m3min_grf.mot
version=1
nRows=17
nColumns 19
inDegrees=yes
endheader
time	1_ground_force_vx	1_ground_force_vy	1_ground_force_vz	1_ground_force_px	1_ground_force_py	1_ground_force_pz	1_ground_torque_x	1_ground_torque_y	1_ground_torque_z	2_ground_force_vx	2_ground_force_vy	2_ground_force_vz	2_ground_force_px	2_ground_force_py	2_ground_force_pz	2_ground_torque_x	2_ground_torque_y	2_ground_torque_z
            3.751500	            0.230958	           -1.444637	            0.589374	           -0.233013	            0.005581	           -0.255695	           -0.005674	            0.138696	            0.029232	           -1.222160	            1.458579	            2.868389	           -0.232311	            0.006130	           -0.833667	           -0.747472	           -1.034873	            0.505599
            3.752000	           -0.136325	           -0.362524	            0.457355	           -0.233013	            0.005581	           -0.255695	           -0.056936	            0.055483	           -0.024270	           -1.130495	            2.011697	            2.776464	           -0.232311	            0.006130	           -0.833667	           -0.935455	           -0.988623	            0.600098
            3.752500	            0.321845	           -0.181777	            0.365278	           -0.233013	            0.005581	           -0.255695	           -0.015581	           -0.027411	           -0.023986	           -1.271024	            2.011022	            2.823452	           -0.232311	            0.006130	           -0.833667	           -0.897894	           -0.979237	            0.656667
            3.753000	            0.138964	           -1.624331	            0.451261	           -0.233013	            0.005581	           -0.255695	            0.000437	           -0.111083	            0.061839	           -1.225462	            2.379153	            2.918602	           -0.232311	            0.006130	           -0.833667	           -0.935421	           -0.998076	            0.600065
            3.753500	            0.138946	           -0.903464	            0.500209	           -0.233013	            0.005581	           -0.255695	           -0.020809	           -0.064788	            0.043266	           -0.944322	            2.379833	            3.012339	           -0.232311	            0.006130	           -0.833667	           -0.935463	           -0.988556	            0.581248
            3.754000	           -0.090644	           -0.722653	            0.363983	           -0.233013	            0.005581	           -0.255695	           -0.034011	            0.018532	           -0.022518	           -1.180003	            2.748121	            2.779112	           -0.232311	            0.006130	           -0.833667	           -0.841247	           -1.063973	            0.618639
            3.754500	            0.185163	           -1.084311	            0.636890	           -0.233013	            0.005581	           -0.255695	            0.010775	            0.092704	           -0.029368	           -1.038104	            2.380165	            2.824666	           -0.232311	            0.006130	           -0.833667	           -0.822870	           -0.959657	            0.543601
            3.755000	            0.001288	           -1.443895	            0.406520	           -0.233013	            0.005581	           -0.255695	           -0.054372	            0.092680	           -0.055811	           -0.848752	            1.828731	            2.728759	           -0.232311	            0.006130	           -0.833667	           -0.897757	           -1.017047	            0.656532
            3.755500	            0.093118	           -0.362873	            0.548497	           -0.233013	            0.005581	           -0.255695	           -0.042002	            0.046271	            0.004225	           -0.990589	            2.196185	            2.823989	           -0.232311	            0.006130	           -0.833667	           -0.841554	           -0.978899	            0.618942
            3.756000	            0.000961	           -0.902705	            0.317127	           -0.233013	            0.005581	           -0.255695	           -0.088417	           -0.064307	           -0.094015	           -1.134544	            3.117089	            2.639622	           -0.232311	            0.006130	           -0.833667	           -0.841690	           -0.950272	            0.543643
            3.756500	           -0.090725	           -0.902722	            0.317354	           -0.233013	            0.005581	           -0.255695	            0.062080	           -0.083371	            0.033207	           -1.177324	            2.011360	            2.823412	           -0.232311	            0.006130	           -0.833667	           -0.803812	           -1.035210	            0.543323
            3.757000	            0.000944	           -0.181839	            0.366074	           -0.233013	            0.005581	           -0.255695	           -0.015509	           -0.092424	           -0.000351	           -1.036172	            1.828222	            2.681911	           -0.232311	            0.006130	           -0.833667	           -0.879058	           -0.988756	            0.694325
            3.757500	            0.230191	           -0.362060	            0.364732	           -0.233013	            0.005581	           -0.255695	            0.022200	            0.027772	            0.028649	           -1.274327	            2.931596	            2.873665	           -0.232311	            0.006130	           -0.833667	           -0.954232	           -0.988758	            0.618956
            3.758000	            0.093151	           -0.543139	            0.547725	           -0.233013	            0.005581	           -0.255695	           -0.060444	            0.147541	            0.098702	           -0.894937	            1.644413	            2.728122	           -0.232311	            0.006130	           -0.833667	           -0.841553	           -0.988083	            0.543508
            3.758500	            0.138425	           -0.542147	            0.318331	           -0.233013	            0.005581	           -0.255695	            0.061603	            0.111249	           -0.050187	           -0.989925	            2.012037	            2.823332	           -0.232311	            0.006130	           -0.833667	           -0.897936	           -0.969717	            0.637850
            3.759000	            0.138703	           -1.443672	            0.360322	           -0.233013	            0.005581	           -0.255695	           -0.108696	           -0.027433	           -0.050327	           -0.988054	            1.460596	            2.539792	           -0.232311	            0.006130	           -0.833667	           -0.766431	           -0.969309	            0.656644
            3.759500	            0.184432	           -1.443466	            0.314353	           -0.233013	            0.005581	           -0.255695	           -0.012817	           -0.092180	           -0.030089	           -1.083666	            2.012033	            2.729516	           -0.232311	            0.006130	           -0.833667	           -0.803915	           -0.997668	            0.618859
